<?xml version="1.0" standalone="no"?>
<!DOCTYPE svg PUBLIC "-//W3C//DTD SVG 20010904//EN"
 "http://www.w3.org/TR/2001/REC-SVG-20010904/DTD/svg10.dtd">
<svg version="1.0" xmlns="http://www.w3.org/2000/svg"
 width="2000.000000pt" height="367.000000pt" viewBox="0 0 2000.000000 367.000000"
 preserveAspectRatio="xMidYMid meet">
<metadata>
Created by potrace 1.16, written by Peter Selinger 2001-2019
</metadata>
<g transform="translate(0.000000,367.000000) scale(0.100000,-0.100000)"
fill="#000000" stroke="none">
<path d="M2575 3379 c-379 -50 -704 -339 -800 -710 -37 -141 -36 -338 1 -482
21 -83 93 -235 148 -311 266 -371 767 -503 1181 -312 142 66 286 183 372 303
37 52 43 66 33 78 -21 26 -38 17 -78 -42 -75 -110 -221 -231 -355 -294 -121
-56 -206 -72 -377 -72 -139 0 -164 3 -243 27 -310 93 -529 313 -624 623 -24
79 -26 104 -27 243 0 140 3 163 27 242 100 324 326 545 651 635 89 25 346 25
441 -1 161 -42 359 -163 459 -280 41 -48 50 -54 67 -46 10 6 19 15 19 21 0 18
-164 175 -229 219 -192 129 -443 189 -666 159z"/>
<path d="M18985 3379 c-109 -11 -245 -48 -324 -88 -76 -39 -160 -116 -196
-183 -28 -49 -30 -60 -30 -158 0 -92 3 -111 25 -154 31 -61 85 -108 180 -156
98 -49 191 -78 489 -150 400 -98 500 -138 594 -240 69 -74 90 -137 89 -264 0
-109 -17 -168 -66 -235 -70 -95 -192 -163 -356 -198 -106 -22 -387 -25 -499
-4 -253 46 -393 152 -451 339 -17 56 -32 70 -58 53 -33 -21 44 -195 122 -273
127 -130 325 -191 621 -191 293 1 496 65 628 199 90 91 123 188 115 343 -8
153 -54 244 -165 327 -101 76 -211 114 -584 203 -369 89 -489 133 -567 212
-67 67 -88 170 -57 277 18 60 92 147 161 187 193 113 579 140 793 55 120 -47
215 -137 274 -257 21 -44 31 -50 56 -34 23 15 -53 145 -129 222 -111 112 -255
165 -468 174 -59 2 -147 -1 -197 -6z"/>
<path d="M1517 3364 c-4 -4 -7 -425 -7 -936 0 -928 0 -928 30 -928 30 0 30 0
28 933 -3 930 -3 932 -23 935 -12 2 -24 0 -28 -4z"/>
<path d="M3682 3358 c-9 -9 -12 -218 -12 -935 0 -923 0 -923 30 -923 30 0 30
0 30 450 l0 450 688 -2 687 -3 3 -447 c2 -448 2 -448 27 -448 25 0 25 0 23
933 -3 924 -3 932 -23 932 -20 0 -20 -8 -23 -446 -2 -361 -5 -449 -16 -458 -9
-8 -201 -10 -687 -9 l-674 3 -5 455 c-4 396 -7 455 -20 458 -9 1 -21 -3 -28
-10z"/>
<path d="M12627 3364 c-4 -4 -7 -262 -7 -573 0 -332 -4 -601 -10 -649 -21
-161 -82 -284 -200 -402 -87 -87 -172 -140 -285 -177 -70 -23 -96 -27 -210
-27 -114 0 -140 4 -210 27 -114 38 -199 91 -285 177 -118 119 -180 244 -200
407 -11 83 -19 99 -46 89 -15 -6 -16 -16 -11 -79 26 -308 258 -578 564 -658
107 -28 270 -28 376 0 257 67 457 261 539 521 23 75 23 75 23 710 0 565 -2
635 -15 638 -9 1 -19 0 -23 -4z"/>
<path d="M16606 3361 c-31 -6 -28 0 -266 -516 -43 -93 -115 -249 -160 -345
-45 -96 -117 -251 -160 -345 -283 -615 -280 -608 -318 -598 -20 5 -61 88 -355
723 -162 349 -223 481 -257 555 -117 250 -195 418 -217 468 -25 56 -27 58 -62
55 -36 -3 -36 -3 -39 -930 -2 -928 -2 -928 28 -928 30 0 30 0 30 872 0 535 4
868 9 863 5 -6 50 -98 99 -205 50 -107 138 -298 197 -425 59 -126 135 -291
170 -365 34 -74 109 -234 165 -355 56 -121 115 -248 131 -281 62 -136 156
-141 218 -12 43 93 374 803 441 948 55 120 259 557 304 650 21 45 21 45 26
-820 5 -865 5 -865 33 -868 27 -3 27 -3 27 927 0 511 -3 932 -7 934 -5 2 -21
1 -37 -2z"/>
<path d="M17574 3362 c-661 -2 -661 -2 -688 -28 -26 -27 -26 -27 -26 -920 0
-492 -1 -897 -2 -901 -2 -5 315 -9 705 -11 707 -2 707 -2 707 23 0 25 0 25
-677 27 l-678 3 -3 423 -2 422 681 0 c680 0 680 0 677 25 -3 26 -3 26 -678 28
l-675 2 -3 412 c-2 364 0 413 14 427 14 14 86 16 669 16 602 0 653 1 659 17 4
9 1 21 -6 27 -9 8 -215 10 -674 8z"/>
<path d="M153 3336 c-28 -24 -28 -24 -31 -929 -2 -831 -1 -905 14 -911 45 -17
44 -35 44 903 0 677 3 890 12 899 15 15 638 17 719 2 30 -5 91 -28 135 -50
303 -149 378 -553 150 -807 -56 -62 -125 -107 -214 -141 -66 -25 -73 -26 -392
-30 -277 -3 -328 -6 -342 -19 -27 -24 -22 -65 9 -95 16 -14 156 -103 313 -198
157 -96 390 -238 519 -317 183 -112 237 -141 247 -132 19 15 18 45 -1 53 -16
6 -175 102 -753 456 -157 96 -287 181 -290 188 -3 9 61 12 295 12 335 0 380 6
493 66 126 66 227 185 276 324 36 102 38 253 5 350 -66 193 -215 336 -401 385
-43 12 -133 15 -417 15 -362 0 -362 0 -390 -24z"/>
<path d="M6149 3336 c-13 -13 -56 -93 -96 -178 -40 -84 -145 -304 -233 -488
-89 -184 -222 -461 -295 -615 -73 -154 -162 -340 -199 -414 -36 -73 -66 -135
-66 -138 0 -2 14 -3 31 -1 30 3 35 11 155 263 68 143 138 289 156 325 33 65
33 65 609 68 577 2 577 2 638 -125 253 -526 255 -531 279 -536 13 -2 26 1 28
7 3 7 -39 102 -92 212 -53 109 -143 296 -199 414 -57 118 -162 339 -235 490
-73 151 -177 370 -232 485 -54 116 -110 220 -124 233 -35 31 -93 30 -125 -2z
m92 -42 c7 -9 60 -113 117 -232 231 -481 392 -824 392 -833 0 -5 -208 -9 -541
-9 -429 0 -540 3 -536 13 9 21 283 598 330 692 24 50 72 151 107 225 74 160
97 185 131 144z"/>
<path d="M7301 3339 c-12 -11 -26 -32 -32 -46 -5 -14 -9 -382 -9 -909 0 -884
0 -884 30 -884 30 0 30 0 30 889 0 811 1 891 16 906 15 15 53 16 373 13 334
-4 360 -5 413 -25 168 -63 283 -185 332 -352 23 -78 21 -213 -4 -293 -56 -181
-225 -328 -410 -358 -36 -5 -192 -10 -347 -10 -270 0 -284 -1 -303 -20 -26
-26 -25 -53 3 -84 18 -21 1032 -647 1072 -662 13 -5 41 33 32 43 -3 2 -242
149 -532 326 -290 177 -528 327 -529 332 0 6 116 12 324 15 316 6 327 6 390
31 169 65 291 192 352 369 32 92 32 256 -1 350 -62 180 -220 328 -397 374 -51
13 -126 16 -421 16 -351 0 -360 0 -382 -21z"/>
<path d="M8660 3331 c-30 -29 -30 -29 -30 -930 l0 -901 319 0 c338 0 427 8
554 51 251 86 456 280 560 529 55 132 62 176 61 360 0 150 -3 173 -28 255 -76
250 -250 455 -481 570 -172 85 -193 88 -583 93 -342 3 -342 3 -372 -27z m755
-48 c229 -66 394 -184 519 -371 180 -272 191 -622 29 -912 -35 -62 -74 -111
-143 -180 -100 -100 -159 -140 -287 -195 -136 -59 -199 -66 -543 -63 l-305 3
-3 849 c-2 762 0 852 14 874 16 24 16 24 332 20 280 -4 325 -7 387 -25z"/>
<path d="M13661 3339 c-12 -12 -31 -40 -41 -63 -10 -22 -55 -117 -100 -211
-45 -93 -129 -267 -185 -385 -57 -118 -164 -343 -240 -500 -75 -157 -175 -366
-222 -465 -47 -99 -90 -186 -96 -193 -16 -20 5 -35 34 -23 19 7 52 67 159 292
74 156 144 302 155 324 20 40 20 40 598 43 578 2 578 2 609 -65 16 -37 87
-185 158 -329 89 -182 133 -262 146 -266 44 -11 44 3 0 90 -24 48 -86 177
-139 287 -52 110 -129 270 -170 355 -73 152 -151 315 -396 830 -69 145 -133
265 -147 278 -33 29 -92 30 -123 1z m91 -46 c9 -10 79 -151 156 -313 77 -162
188 -395 246 -517 58 -122 106 -226 106 -232 0 -8 -158 -11 -540 -11 -297 0
-540 3 -540 6 0 5 59 129 367 769 79 165 149 303 156 307 19 12 33 9 49 -9z"/>
<path d="M5120 837 c-131 -36 -209 -147 -197 -278 13 -143 142 -251 282 -236
228 23 322 300 153 452 -69 63 -155 85 -238 62z m188 -60 c63 -41 95 -97 100
-172 5 -76 -10 -125 -51 -171 -131 -150 -376 -77 -403 119 -13 94 44 198 130
239 62 29 169 22 224 -15z"/>
<path d="M9154 832 c-189 -67 -244 -292 -104 -432 68 -68 174 -97 256 -70 79
26 171 107 148 130 -6 6 -26 -8 -53 -35 -42 -43 -111 -75 -163 -75 -99 0 -207
85 -227 180 -33 152 70 280 224 280 66 0 108 -16 159 -60 25 -23 40 -30 47
-23 7 7 0 20 -23 42 -75 71 -176 95 -264 63z"/>
<path d="M11910 839 c-56 -11 -90 -35 -113 -81 -16 -33 -17 -40 -3 -72 18 -44
46 -58 186 -96 62 -17 121 -35 131 -41 26 -13 39 -42 39 -84 0 -80 -45 -109
-170 -109 -102 0 -144 18 -166 70 -14 33 -44 47 -44 20 0 -23 44 -79 76 -98
43 -25 148 -34 213 -18 120 29 166 135 94 220 -18 22 -44 36 -94 50 -38 11
-100 29 -138 40 -85 25 -103 41 -99 88 5 55 41 76 141 81 93 4 131 -10 159
-59 19 -33 38 -40 38 -13 0 35 -49 82 -102 98 -57 16 -81 17 -148 4z"/>
<path d="M12545 841 c-124 -32 -204 -133 -205 -256 0 -194 207 -323 378 -236
53 27 119 104 133 155 25 91 1 196 -59 259 -57 61 -173 97 -247 78z m187 -68
c108 -76 131 -234 47 -336 -107 -130 -314 -105 -385 46 -53 116 -15 238 96
302 39 23 54 25 120 23 66 -3 81 -7 122 -35z"/>
<path d="M15134 832 c-156 -55 -226 -222 -153 -367 27 -54 60 -86 118 -116
199 -103 436 99 366 311 -46 139 -200 219 -331 172z m174 -38 c101 -42 155
-152 130 -267 -15 -73 -92 -149 -167 -167 -157 -37 -311 99 -286 253 14 82 65
151 135 181 46 20 141 20 188 0z"/>
<path d="M16425 845 c-5 -2 -27 -6 -48 -10 -20 -3 -53 -19 -72 -36 -80 -71
-44 -157 80 -190 22 -6 76 -20 120 -31 100 -27 125 -50 125 -113 0 -60 -30
-90 -107 -105 -107 -23 -213 9 -235 70 -11 34 -38 40 -38 9 0 -33 69 -95 120
-109 99 -27 229 3 274 63 24 33 26 105 3 141 -26 40 -54 53 -173 84 -168 45
-200 70 -171 132 21 44 71 61 166 58 83 -3 83 -3 120 -46 41 -47 51 -51 51
-22 0 31 -62 86 -113 99 -44 11 -81 13 -102 6z"/>
<path d="M2920 825 c0 -12 18 -15 105 -15 105 0 105 0 105 -240 0 -207 2 -240
15 -240 13 0 15 33 15 240 0 240 0 240 105 240 87 0 105 3 105 15 0 13 -32 15
-225 15 -193 0 -225 -2 -225 -15z"/>
<path d="M3732 827 c-7 -8 -38 -70 -71 -138 -32 -68 -82 -171 -110 -229 -54
-110 -59 -130 -38 -130 7 0 31 39 53 86 39 86 39 86 189 86 150 0 150 0 190
-86 28 -59 45 -86 58 -86 9 0 17 3 16 8 0 4 -55 117 -122 252 -74 149 -128
246 -138 248 -9 2 -21 -3 -27 -11z m38 -37 c0 -6 27 -64 60 -131 33 -66 60
-122 60 -122 0 -1 -61 -2 -135 -2 -74 0 -135 1 -135 1 0 1 12 26 28 55 15 30
45 91 66 136 21 46 42 80 47 77 5 -3 9 -9 9 -14z"/>
<path d="M4175 828 c-3 -7 -4 -121 -3 -253 3 -220 4 -240 21 -243 16 -3 17 12
15 249 -2 191 -6 253 -15 257 -7 2 -15 -2 -18 -10z"/>
<path d="M4397 834 c-4 -4 -7 -114 -7 -244 0 -179 3 -240 13 -248 7 -6 86 -11
192 -13 161 -2 180 -1 183 14 3 15 -14 17 -178 17 -181 0 -181 0 -179 237 2
220 -2 258 -24 237z"/>
<path d="M5622 828 c-9 -9 -12 -79 -12 -256 0 -224 1 -243 17 -240 15 3 17 15
14 98 -3 95 -3 95 21 74 43 -40 271 -175 285 -170 8 3 12 10 9 15 -3 5 -65 44
-138 87 -132 79 -132 79 -42 84 100 6 130 20 165 77 28 45 29 120 1 165 -37
60 -85 78 -204 78 -68 0 -108 -4 -116 -12z m232 -32 c51 -21 76 -60 76 -117 0
-42 -5 -55 -34 -86 -34 -37 -34 -37 -132 -43 -55 -3 -105 -9 -111 -13 -10 -6
-13 21 -13 126 0 73 3 137 7 140 12 13 173 7 207 -7z"/>
<path d="M6127 834 c-4 -4 -7 -119 -7 -255 0 -248 0 -248 188 -251 103 -2 191
0 196 4 4 3 5 11 2 17 -5 7 -67 11 -181 11 -174 0 -174 0 -177 101 -2 56 0
103 5 106 4 2 85 3 180 2 157 -2 172 -1 175 15 3 16 -10 17 -177 14 -100 -2
-182 0 -184 4 -1 4 -1 53 1 108 3 100 3 100 178 102 107 2 174 7 174 13 0 11
-362 20 -373 9z"/>
<path d="M6687 833 c-4 -3 -7 -118 -7 -255 0 -248 0 -248 108 -248 82 0 116 5
147 19 99 45 155 130 155 237 0 108 -67 203 -170 239 -43 15 -220 21 -233 8z
m220 -38 c59 -18 123 -80 143 -139 33 -102 -15 -219 -109 -268 -50 -26 -62
-28 -145 -26 -50 2 -90 6 -88 11 1 4 2 104 2 222 0 215 0 215 73 215 40 0 96
-7 124 -15z"/>
<path d="M7650 836 c-1 -3 -1 -117 -1 -253 -1 -226 1 -248 16 -251 16 -4 17 7
14 112 -2 64 -2 116 0 116 2 0 12 -6 20 -14 35 -30 297 -209 314 -214 10 -2
17 1 17 9 -1 12 -262 199 -311 223 -19 9 -27 36 -11 36 4 0 75 47 157 105 133
94 178 135 146 135 -9 0 -149 -96 -278 -192 -29 -21 -53 -38 -55 -38 -2 0 -3
50 -3 112 0 80 -3 112 -12 115 -7 3 -13 2 -13 -1z"/>
<path d="M8200 833 c-1 -5 -1 -118 -1 -253 0 -213 2 -245 16 -248 13 -3 15 27
15 252 0 221 -2 256 -15 256 -8 0 -15 -3 -15 -7z"/>
<path d="M8390 825 c0 -12 17 -15 103 -15 102 0 102 0 99 -240 -4 -240 -4
-240 18 -240 21 0 21 0 18 240 -3 239 -3 239 102 242 61 2 105 7 105 13 0 6
-83 11 -222 13 -194 2 -223 0 -223 -13z"/>
<path d="M9630 585 c0 -220 2 -255 15 -255 13 0 15 20 15 120 0 120 0 120 175
120 175 0 175 0 175 -120 0 -100 3 -120 15 -120 13 0 15 35 15 255 0 218 -2
255 -15 255 -12 0 -15 -22 -17 -121 -3 -120 -3 -120 -173 -120 -170 0 -170 0
-173 120 -2 99 -5 121 -17 121 -13 0 -15 -37 -15 -255z"/>
<path d="M10232 828 c-9 -9 -12 -79 -12 -255 0 -243 0 -243 175 -245 96 -1
183 -2 192 -2 10 -1 19 7 21 17 3 16 -11 17 -177 17 -181 0 -181 0 -181 106 0
105 0 105 178 103 160 -2 177 -1 180 15 3 15 -11 17 -175 16 -178 -2 -178 -2
-181 104 -3 106 -3 106 178 106 153 0 180 2 180 15 0 13 -27 15 -183 15 -129
0 -187 -4 -195 -12z"/>
<path d="M10782 583 c2 -168 6 -256 13 -253 6 3 11 90 12 225 1 121 2 225 3
230 0 6 12 -8 28 -31 15 -22 94 -127 176 -232 206 -267 208 -266 204 74 -3
201 -5 239 -17 239 -13 0 -15 -35 -12 -237 2 -152 -1 -238 -7 -238 -6 0 -18
13 -29 28 -50 78 -349 452 -360 452 -11 0 -13 -50 -11 -257z"/>
<path d="M13030 591 c0 -138 4 -252 8 -255 4 -2 91 -6 192 -7 154 -2 185 0
185 12 0 11 -32 14 -177 17 -178 2 -178 2 -178 242 0 207 -2 240 -15 240 -13
0 -15 -34 -15 -249z"/>
<path d="M13570 668 c0 -161 2 -176 24 -224 76 -164 301 -163 377 1 16 34 19
66 19 218 0 151 -2 177 -15 177 -13 0 -15 -26 -15 -172 -1 -221 -16 -262 -113
-303 -67 -28 -135 -13 -189 41 -50 49 -60 99 -57 279 3 134 1 150 -14 153 -15
3 -17 -12 -17 -170z"/>
<path d="M14140 825 c0 -12 18 -15 105 -15 105 0 105 0 105 -240 0 -207 2
-240 15 -240 13 0 15 33 15 240 0 240 0 240 105 240 87 0 105 3 105 15 0 13
-32 15 -225 15 -193 0 -225 -2 -225 -15z"/>
<path d="M14750 585 c0 -220 2 -255 15 -255 13 0 15 35 15 255 0 220 -2 255
-15 255 -13 0 -15 -35 -15 -255z"/>
<path d="M15647 833 c-3 -5 -5 -120 -6 -256 -2 -235 -1 -248 16 -245 17 3 18
19 18 226 -1 122 2 221 5 220 4 -2 51 -61 105 -133 197 -261 245 -316 268
-313 22 3 22 5 25 256 2 220 0 252 -13 252 -13 0 -15 -33 -15 -242 -1 -243 -1
-243 -23 -217 -12 15 -71 91 -132 170 -215 280 -235 303 -248 282z"/>
</g>
</svg>
